<svg width="26" height="50" viewBox="0 0 26 50" fill="none" xmlns="http://www.w3.org/2000/svg">
<path fill-rule="evenodd" clip-rule="evenodd" d="M21.698 32.7172C21.0616 30.7702 19.8015 26.6393 19.8015 26.6393L16.2078 25.0902L22.9963 49.6387C22.9963 49.6387 19.6996 51.0862 18.5711 48.1869C17.1794 44.6401 12.8475 33.4832 12.8475 33.4832L6.9415 38.85C6.9415 38.85 6.44509 45.2623 6.37721 47.4039C6.26265 51.0184 2.59262 49.5201 2.59262 49.5201L2.35078 37.0089L8.86774 28.7979C6.69118 22.4999 0.920949 6.0186 0.445754 4.351C-0.262796 1.8623 -0.402809 0.232787 2.14288 0L8.63863 15.3978L23.3188 24.1591L25.2577 33.8388C25.2577 33.8388 22.6357 35.5868 21.698 32.7172ZM9.44901 11.1315C9.44901 5.79005 17.1752 6.73389 16.5769 11.4912C16.0254 16.0708 9.44901 16.5448 9.44901 11.1315Z" fill="black"/>
</svg>
