<svg width="78" height="50" viewBox="0 0 78 50" fill="none" xmlns="http://www.w3.org/2000/svg">
<path fill-rule="evenodd" clip-rule="evenodd" d="M76.4375 29.1625L65.1505 20.0897V22.4973L71.6452 49.2601C71.6452 49.2601 67.9735 51.405 66.586 47.9732C65.2305 44.6272 60.8278 31.3986 60.8278 31.3986L58.8158 31.3235C58.8158 31.3235 54.2316 45.0669 53.223 47.9464C52.1557 51.0672 48.2759 49.4049 48.2759 49.4049L54.317 22.9048L53.5966 17.1673L44.5243 15.6819L43.3929 6.96296L28.541 21.1246L36.8662 27.1946C26.9773 38.9915 8.97676 30.3047 13.673 14.3253L22.9268 18.1914L23.0389 14.6363L10.7966 7.12919L8.72594 7.58498C6.97551 4.78054 8.88604 2.4587 12.0614 3.75636C16.6242 5.61705 30.4141 11.7621 30.4141 11.7621L41.7332 3.45607C42.1068 1.65437 42.5444 1.54712 44.8765 1.94929C47.2086 2.35146 47.342 2.6571 46.9845 4.71083L48.6388 10.9578C48.6388 10.9578 56.2542 11.0919 60.5236 11.0919C64.7929 11.0919 65.6948 12.1965 67.3278 14.3092C68.9608 16.4219 74.6337 22.315 77.0619 25.2803C79.4901 28.2456 76.4375 29.1625 76.4375 29.1625ZM56.3076 4.16925C56.3076 -1.98122 65.1344 -0.887323 64.4514 4.58214C63.7949 9.84784 56.3076 10.3948 56.3076 4.16925ZM25.355 4.58214C24.6719 -0.887323 33.4934 -1.98122 33.4934 4.16925C33.4934 10.3197 25.9847 9.84784 25.3283 4.58214H25.355ZM9.79327 20.9047L1.55347 15.3173C-1.50978 13.2421 0.902394 10.9632 0.902394 10.9632L9.83063 15.1511L9.79327 20.9047ZM27.4683 49.9465C27.0546 50.0252 26.6292 50.017 26.2188 49.9225C25.8085 49.828 25.422 49.6493 25.0836 49.3975C24.7453 49.1457 24.4625 48.8263 24.253 48.4594C24.0434 48.0924 23.9117 47.6859 23.866 47.2654C23.4818 45.3082 22.4465 39.6081 21.6033 34.9323L27.5217 34.7982L27.4683 49.9465Z" fill="#FFB800"/>
</svg>
