<svg width="62" height="62" viewBox="0 0 62 62" fill="none" xmlns="http://www.w3.org/2000/svg">
<path d="M42.0625 19C40.25 7.8375 35.975 0 31 0C26.025 0 21.75 7.8375 19.9375 19H42.0625ZM19 31C19 33.775 19.15 36.4375 19.4125 39H42.575C42.8375 36.4375 42.9875 33.775 42.9875 31C42.9875 28.225 42.8375 25.5625 42.575 23H19.4125C19.15 25.5625 19 28.225 19 31ZM59.5875 19C56.0125 10.5125 48.775 3.95 39.8375 1.3C42.8875 5.525 44.9875 11.8875 46.0875 19H59.5875ZM22.15 1.3C13.225 3.95 5.975 10.5125 2.4125 19H15.9125C17 11.8875 19.1 5.525 22.15 1.3ZM60.925 23H46.5875C46.85 25.625 47 28.3125 47 31C47 33.6875 46.85 36.375 46.5875 39H60.9125C61.6 36.4375 61.9875 33.775 61.9875 31C61.9875 28.225 61.6 25.5625 60.925 23ZM15 31C15 28.3125 15.15 25.625 15.4125 23H1.075C0.4 25.5625 0 28.225 0 31C0 33.775 0.4 36.4375 1.075 39H15.4C15.15 36.375 15 33.6875 15 31ZM19.9375 43C21.75 54.1625 26.025 62 31 62C35.975 62 40.25 54.1625 42.0625 43H19.9375ZM39.85 60.7C48.775 58.05 56.025 51.4875 59.6 43H46.1C45 50.1125 42.9 56.475 39.85 60.7ZM2.4125 43C5.9875 51.4875 13.225 58.05 22.1625 60.7C19.1125 56.475 17.0125 50.1125 15.9125 43H2.4125Z" fill="black"/>
</svg>
