<svg width="31" height="31" viewBox="0 0 31 31" fill="none" xmlns="http://www.w3.org/2000/svg">
<path d="M26.6641 31H4.33591C3.18595 31 2.0831 30.5432 1.26996 29.73C0.456817 28.9169 0 27.814 0 26.6641V4.33591C0 3.18595 0.456817 2.0831 1.26996 1.26996C2.0831 0.456817 3.18595 0 4.33591 0H26.6641C27.814 0 28.9169 0.456817 29.73 1.26996C30.5432 2.0831 31 3.18595 31 4.33591V26.6641C31 27.814 30.5432 28.9169 29.73 29.73C28.9169 30.5432 27.814 31 26.6641 31ZM4.33591 1.73436C3.64593 1.73436 2.98422 2.00845 2.49634 2.49634C2.00845 2.98422 1.73436 3.64593 1.73436 4.33591V26.6641C1.73436 27.3541 2.00845 28.0158 2.49634 28.5037C2.98422 28.9915 3.64593 29.2656 4.33591 29.2656H26.6641C27.3541 29.2656 28.0158 28.9915 28.5037 28.5037C28.9915 28.0158 29.2656 27.3541 29.2656 26.6641V4.33591C29.2656 3.64593 28.9915 2.98422 28.5037 2.49634C28.0158 2.00845 27.3541 1.73436 26.6641 1.73436H4.33591Z" fill="white"/>
<path d="M15.4999 23.4676C13.924 23.4659 12.384 22.997 11.0745 22.1202C9.76508 21.2434 8.74497 19.998 8.14317 18.5416C7.54137 17.0851 7.38488 15.4829 7.6935 13.9375C8.00212 12.3921 8.76199 10.9729 9.87705 9.85932C10.9921 8.74571 12.4123 7.9877 13.9581 7.6811C15.5039 7.37449 17.1059 7.53307 18.5615 8.13677C20.0172 8.74048 21.2612 9.76221 22.1363 11.0728C23.0114 12.3834 23.4783 13.924 23.478 15.4999C23.4752 17.6141 22.6335 19.6406 21.1376 21.1346C19.6417 22.6285 17.614 23.4676 15.4999 23.4676ZM15.4999 9.25623C14.2675 9.25795 13.0632 9.62487 12.0392 10.3106C11.0152 10.9964 10.2174 11.9703 9.74651 13.1092C9.27567 14.2482 9.15293 15.5011 9.39378 16.7098C9.63464 17.9185 10.2283 19.0286 11.0998 19.9001C11.9712 20.7716 13.0814 21.3652 14.2901 21.6061C15.4987 21.8469 16.7517 21.7242 17.8906 21.2533C19.0296 20.7825 20.0034 19.9847 20.6892 18.9607C21.375 17.9367 21.7419 16.7324 21.7436 15.4999C21.7436 13.844 21.0858 12.2559 19.9149 11.085C18.744 9.91405 17.1558 9.25623 15.4999 9.25623Z" fill="white"/>
<path d="M24.5186 8.39783C25.5483 8.39783 26.3831 7.56309 26.3831 6.53338C26.3831 5.50368 25.5483 4.66895 24.5186 4.66895C23.4889 4.66895 22.6542 5.50368 22.6542 6.53338C22.6542 7.56309 23.4889 8.39783 24.5186 8.39783Z" fill="white"/>
</svg>
