<svg width="180" height="38" viewBox="0 0 180 38" fill="none" xmlns="http://www.w3.org/2000/svg">
<path d="M0.72 15.08H4.94C5.00667 15.4933 5.2 15.8533 5.52 16.16C5.84 16.4667 6.26667 16.7067 6.8 16.88C7.34667 17.04 7.98667 17.12 8.72 17.12C9.73333 17.12 10.5333 16.9933 11.12 16.74C11.7067 16.4733 12 16.0867 12 15.58C12 15.1933 11.8333 14.8933 11.5 14.68C11.1667 14.4667 10.5267 14.3133 9.58 14.22L6.78 13.96C4.71333 13.7733 3.21333 13.3067 2.28 12.56C1.34667 11.8 0.88 10.78 0.88 9.5C0.88 8.46 1.18 7.58 1.78 6.86C2.39333 6.14 3.24667 5.6 4.34 5.24C5.44667 4.86667 6.73333 4.68 8.2 4.68C9.64 4.68 10.92 4.88667 12.04 5.3C13.16 5.7 14.0467 6.27333 14.7 7.02C15.3667 7.76667 15.7267 8.63333 15.78 9.62H11.58C11.5267 9.26 11.3533 8.95333 11.06 8.7C10.78 8.43333 10.3933 8.23333 9.9 8.1C9.40667 7.95333 8.81333 7.88 8.12 7.88C7.18667 7.88 6.44667 8.00667 5.9 8.26C5.35333 8.5 5.08 8.86 5.08 9.34C5.08 9.68667 5.24 9.96667 5.56 10.18C5.89333 10.3933 6.48667 10.54 7.34 10.62L10.32 10.92C11.7467 11.0533 12.8867 11.2867 13.74 11.62C14.5933 11.94 15.2133 12.3867 15.6 12.96C15.9867 13.5333 16.18 14.2467 16.18 15.1C16.18 16.1533 15.8667 17.0733 15.24 17.86C14.6133 18.6333 13.7333 19.24 12.6 19.68C11.4667 20.1067 10.1467 20.32 8.64 20.32C7.09333 20.32 5.72667 20.1067 4.54 19.68C3.36667 19.24 2.44667 18.6267 1.78 17.84C1.11333 17.04 0.76 16.12 0.72 15.08ZM20.4333 17.12V13.78H30.7733V17.12H20.4333ZM28.4133 5L35.2333 20H30.8133L25.0933 6.76H26.2933L20.5533 20H16.1333L22.9533 5H28.4133ZM58.5739 5V20H54.6339V6.48L55.5139 6.58L49.7139 20H45.5139L39.6939 6.62L40.5939 6.52V20H36.6539V5H43.0539L48.4339 17.88H46.8339L52.1739 5H58.5739ZM71.5405 12.66L71.8805 11.88C73.0405 11.9067 73.9938 12.0867 74.7405 12.42C75.5005 12.74 76.0671 13.1933 76.4405 13.78C76.8138 14.3533 77.0005 15.02 77.0005 15.78C77.0005 16.5933 76.8138 17.32 76.4405 17.96C76.0671 18.5867 75.5071 19.0867 74.7605 19.46C74.0271 19.82 73.1071 20 72.0005 20H60.9205L62.0805 12.3L60.9205 5H71.6005C72.9871 5 74.0671 5.32667 74.8405 5.98C75.6138 6.62 76.0005 7.51333 76.0005 8.66C76.0005 9.28667 75.8538 9.88667 75.5605 10.46C75.2671 11.0333 74.7938 11.52 74.1405 11.92C73.5005 12.3067 72.6338 12.5533 71.5405 12.66ZM65.0205 19.04L63.4205 17.1H70.8805C71.4805 17.1 71.9471 16.9533 72.2805 16.66C72.6138 16.3667 72.7805 15.96 72.7805 15.44C72.7805 14.92 72.6005 14.5067 72.2405 14.2C71.8805 13.88 71.3471 13.72 70.6405 13.72H64.4805V10.88H70.0805C70.5605 10.88 70.9605 10.74 71.2805 10.46C71.6138 10.1667 71.7805 9.77333 71.7805 9.28C71.7805 8.88 71.6405 8.55333 71.3605 8.3C71.0805 8.03333 70.6805 7.9 70.1605 7.9H63.4405L65.0205 5.96L66.0405 12.3L65.0205 19.04ZM81.2145 17.12V13.78H91.5545V17.12H81.2145ZM89.1945 5L96.0145 20H91.5945L85.8745 6.76H87.0745L81.3345 20H76.9145L83.7345 5H89.1945Z" fill="#FFB800"/>
<path d="M111.615 18.4L110.535 18.52V5H113.095V20H109.735L99.2152 6.48L100.275 6.36V20H97.7152V5H101.155L111.615 18.4ZM116.446 5H119.086V20H116.446V5ZM121.522 15.12H124.202C124.282 15.72 124.528 16.2467 124.942 16.7C125.368 17.1533 125.928 17.5067 126.622 17.76C127.315 18 128.115 18.12 129.022 18.12C130.368 18.12 131.435 17.9133 132.222 17.5C133.008 17.0733 133.402 16.5 133.402 15.78C133.402 15.1933 133.175 14.7533 132.722 14.46C132.268 14.1667 131.448 13.9467 130.262 13.8L127.022 13.38C125.208 13.14 123.888 12.6933 123.062 12.04C122.248 11.3733 121.842 10.4333 121.842 9.22C121.842 8.3 122.115 7.50667 122.662 6.84C123.222 6.16 124.008 5.64 125.022 5.28C126.035 4.90667 127.222 4.72 128.582 4.72C129.928 4.72 131.122 4.92 132.162 5.32C133.202 5.72 134.028 6.28 134.642 7C135.268 7.70667 135.608 8.54 135.662 9.5H132.982C132.915 8.96667 132.688 8.50667 132.302 8.12C131.928 7.73333 131.422 7.43333 130.782 7.22C130.142 6.99333 129.388 6.88 128.522 6.88C127.295 6.88 126.315 7.08 125.582 7.48C124.848 7.88 124.482 8.42667 124.482 9.12C124.482 9.65333 124.695 10.0667 125.122 10.36C125.562 10.64 126.322 10.8533 127.402 11L130.682 11.46C132.028 11.6467 133.088 11.9 133.862 12.22C134.648 12.5267 135.208 12.9467 135.542 13.48C135.875 14 136.042 14.6733 136.042 15.5C136.042 16.46 135.748 17.3 135.162 18.02C134.575 18.74 133.748 19.3 132.682 19.7C131.628 20.0867 130.395 20.28 128.982 20.28C127.542 20.28 126.268 20.0667 125.162 19.64C124.068 19.2 123.202 18.5933 122.562 17.82C121.922 17.0467 121.575 16.1467 121.522 15.12ZM158.676 5V20H156.156V5.8L156.976 5.84L149.996 20H147.176L140.196 5.86L141.016 5.82V20H138.496V5H142.536L149.256 18.86H147.936L154.636 5H158.676ZM169.832 20.28C168.125 20.28 166.625 19.9533 165.332 19.3C164.038 18.6467 163.032 17.74 162.312 16.58C161.592 15.4067 161.232 14.0467 161.232 12.5C161.232 10.9533 161.592 9.6 162.312 8.44C163.032 7.26667 164.038 6.35333 165.332 5.7C166.625 5.04667 168.125 4.72 169.832 4.72C171.538 4.72 173.038 5.04667 174.332 5.7C175.625 6.35333 176.632 7.26667 177.352 8.44C178.072 9.6 178.432 10.9533 178.432 12.5C178.432 14.0467 178.072 15.4067 177.352 16.58C176.632 17.74 175.625 18.6467 174.332 19.3C173.038 19.9533 171.538 20.28 169.832 20.28ZM169.832 17.92C171.045 17.92 172.092 17.7 172.972 17.26C173.852 16.82 174.532 16.1933 175.012 15.38C175.505 14.5667 175.752 13.6067 175.752 12.5C175.752 11.3933 175.505 10.4333 175.012 9.62C174.532 8.80667 173.852 8.18 172.972 7.74C172.092 7.3 171.045 7.08 169.832 7.08C168.632 7.08 167.585 7.3 166.692 7.74C165.812 8.18 165.125 8.80667 164.632 9.62C164.152 10.4333 163.912 11.3933 163.912 12.5C163.912 13.6067 164.152 14.5667 164.632 15.38C165.125 16.1933 165.812 16.82 166.692 17.26C167.585 17.7 168.632 17.92 169.832 17.92Z" fill="white"/>
<path d="M56.574 31.598H57.904C57.9693 32.0927 58.1653 32.5267 58.492 32.9C58.8187 33.2733 59.248 33.5627 59.78 33.768C60.3213 33.964 60.942 34.062 61.642 34.062C62.6967 34.062 63.532 33.8847 64.148 33.53C64.7733 33.166 65.086 32.676 65.086 32.06C65.086 31.584 64.89 31.22 64.498 30.968C64.1153 30.716 63.4433 30.534 62.482 30.422L60.452 30.17C59.1733 30.0207 58.254 29.7173 57.694 29.26C57.134 28.7933 56.854 28.168 56.854 27.384C56.854 26.7587 57.0407 26.2173 57.414 25.76C57.7873 25.2933 58.31 24.9387 58.982 24.696C59.6633 24.444 60.4567 24.318 61.362 24.318C62.2673 24.318 63.07 24.458 63.77 24.738C64.4793 25.0087 65.0393 25.3913 65.45 25.886C65.87 26.3713 66.0987 26.9453 66.136 27.608H64.806C64.75 27.16 64.5727 26.7773 64.274 26.46C63.9753 26.1333 63.574 25.8813 63.07 25.704C62.5753 25.5173 61.9967 25.424 61.334 25.424C60.3727 25.424 59.6027 25.5967 59.024 25.942C58.4547 26.278 58.17 26.7493 58.17 27.356C58.17 27.8227 58.3567 28.182 58.73 28.434C59.1127 28.6767 59.7567 28.854 60.662 28.966L62.65 29.232C63.574 29.344 64.3067 29.5073 64.848 29.722C65.3987 29.9367 65.7953 30.226 66.038 30.59C66.2807 30.9447 66.402 31.3973 66.402 31.948C66.402 32.6107 66.2013 33.1847 65.8 33.67C65.408 34.1553 64.8527 34.5287 64.134 34.79C63.4153 35.0513 62.58 35.182 61.628 35.182C60.6667 35.182 59.8127 35.0327 59.066 34.734C58.3193 34.426 57.7267 34.006 57.288 33.474C56.8493 32.9327 56.6113 32.3073 56.574 31.598ZM76.3719 29.19V30.31H69.2179V29.19H76.3719ZM70.0439 29.75L69.2459 34.678L68.5459 33.852H76.7499V35H67.9019L68.7699 29.75L67.9019 24.5H76.6799V25.648H68.5459L69.2459 24.822L70.0439 29.75ZM92.2895 24.5V35H91.0295V24.808L91.5475 24.822L86.2415 35H84.8415L79.5355 24.836L80.0535 24.822V35H78.7935V24.5H80.7815L85.9615 34.552H85.1355L90.3015 24.5H92.2895ZM94.8443 24.5H96.1603V35H94.8443V24.5Z" fill="white"/>
<path d="M108.388 34.342L107.744 34.384V24.5H109.018V35H107.324L99.3298 25.116L99.9738 25.074V35H98.6998V24.5H100.408L108.388 34.342ZM112.629 32.396V31.276H120.021V32.396H112.629ZM117.151 24.5L122.317 35H120.889L116.031 24.948H116.731L111.859 35H110.431L115.597 24.5H117.151ZM124.657 29.456H129.165C129.855 29.456 130.406 29.2833 130.817 28.938C131.237 28.5927 131.447 28.1307 131.447 27.552C131.447 26.964 131.237 26.502 130.817 26.166C130.406 25.8207 129.855 25.648 129.165 25.648H124.475L125.063 24.948V35H123.747V24.5H129.207C129.916 24.5 130.537 24.6307 131.069 24.892C131.601 25.144 132.016 25.4987 132.315 25.956C132.623 26.4133 132.777 26.9453 132.777 27.552C132.777 28.1493 132.623 28.6767 132.315 29.134C132.016 29.5913 131.601 29.9507 131.069 30.212C130.537 30.464 129.916 30.59 129.207 30.59H124.657V29.456ZM126.981 30.086H128.605L132.987 35H131.349L126.981 30.086Z" fill="#FFB800"/>
</svg>
